<svg width="84" height="31" viewBox="0 0 84 31" fill="none" xmlns="http://www.w3.org/2000/svg">
<path fill-rule="evenodd" clip-rule="evenodd" d="M82.5393 12.0851C82.1698 10.9164 81.6558 9.85893 80.933 8.93664C80.2102 8.01436 79.3267 7.34649 78.2826 6.84559C77.9855 6.68658 77.624 6.52756 77.3188 6.44806C77.3188 6.44806 77.2064 6.38445 77.102 6.38445C77.0538 6.38445 76.9976 6.38445 76.9414 6.32879C76.9012 6.32879 76.845 6.32879 76.845 6.27314L76.082 6.11412C75.5198 6.01871 74.797 5.97101 73.9617 6.01871C72.7248 6.07437 71.6326 6.33675 70.6688 6.78199C69.6247 7.29084 68.7412 8.0064 68.0184 8.86509C67.2956 9.78737 66.7816 10.7971 66.4121 12.0215C66.0587 13.1823 65.8981 14.5022 65.8981 15.822C65.8981 17.1975 66.0587 18.4696 66.4202 19.6384C66.7896 20.8071 67.3598 21.8646 68.0264 22.7392C68.5485 23.3514 69.1107 23.8523 69.7934 24.3134C70.0986 24.5201 70.3556 24.6712 70.6768 24.8223H70.717C70.717 24.8223 70.7652 24.8223 70.7652 24.87C70.7996 24.87 70.8156 24.8859 70.8304 24.9008C70.8433 24.9136 70.8552 24.9256 70.8776 24.9256C71.3997 25.18 71.9699 25.3232 72.5883 25.4345C74.3954 25.7843 75.9455 25.5378 75.9455 25.5378C76.7727 25.4345 77.5518 25.18 78.2746 24.87C79.3588 24.3611 80.2343 23.6535 80.9651 22.7869C81.688 21.9282 82.202 20.8548 82.5714 19.6861C82.9248 18.5173 83.0854 17.2452 83.0854 15.8697C83.0854 14.5022 82.8766 13.2301 82.5634 12.0533L82.5393 12.0851ZM70.4359 13.1983C70.6447 12.4032 70.9017 11.632 71.2631 11.0198C71.6245 10.4155 72.0903 9.90668 72.6044 9.55685C73.1264 9.19906 73.7448 9.00029 74.4114 9.00029C75.0861 9.00029 75.6563 9.14341 76.1784 9.50119C76.6924 9.85102 77.102 10.2963 77.4634 10.8687C77.8248 11.4809 78.0898 12.1408 78.2906 12.9518C78.5075 13.7628 78.6119 14.5817 78.6119 15.4961V15.7982C78.6119 16.7125 78.5075 17.6269 78.3549 18.4378C78.1461 19.2568 77.8891 19.9644 77.5276 20.5845C77.1662 21.1888 76.7004 21.642 76.1784 21.9998C75.6643 22.3576 75.054 22.5086 74.3713 22.5086C73.6966 22.5086 73.0862 22.3496 72.5642 21.9998C72.0422 21.642 71.5763 21.1888 71.2149 20.5686C70.8455 19.9644 70.5885 19.2568 70.3796 18.4378C70.1789 17.6269 70.1226 16.7125 70.1226 15.7982C70.1789 14.9236 70.2833 14.0172 70.4439 13.2062L70.4359 13.1983ZM59.1035 25.7127L57.0956 27.9946L56.8868 28.2013L57.0956 31H60.1958L63.4565 27.3903V15.9094L63.3602 15.0349L59.1035 17.2134V25.7127Z" fill="white"/>
<path fill-rule="evenodd" clip-rule="evenodd" d="M32.9845 5.22177L30.9559 3.00409L30.6881 2.81535L30.8991 0L34.0231 0.0471846L37.3824 3.61749V15.2328L37.285 15.8776L32.9845 13.6757V5.22177ZM61.7738 8.34374C62.504 9.25598 63.0233 10.3019 63.3966 11.4579L63.4128 11.4265C63.778 12.5904 63.9403 13.8486 63.9403 15.2012C63.9403 16.5617 63.778 17.82 63.4209 18.976C63.0477 20.132 62.5284 21.1937 61.7981 22.043C61.0678 22.9002 60.1753 23.6001 59.0798 24.1034C58.3496 24.4101 57.5625 24.6618 56.7267 24.764C56.7267 24.764 55.1607 25.0078 53.335 24.6618C52.7102 24.5517 52.1341 24.4101 51.6147 24.1585C51.5853 24.1585 51.5711 24.1436 51.5574 24.1294C51.5448 24.1161 51.5327 24.1034 51.5093 24.1034C51.5093 24.0562 51.4525 24.0562 51.4525 24.0562H51.4119C51.0873 23.9068 50.8277 23.7574 50.5193 23.5529C49.8377 23.0968 49.2616 22.6014 48.7342 21.9958C48.0607 21.1308 47.4846 20.0849 47.1114 18.9288C46.7543 17.7728 46.592 16.5146 46.592 15.1541C46.592 13.8486 46.7462 12.5432 47.1032 11.395C47.4765 10.1839 47.9958 9.1852 48.7261 8.27297C49.4564 7.42364 50.3489 6.71587 51.4038 6.21257C52.3775 5.77218 53.481 5.51267 54.7306 5.45762C55.5745 5.41043 56.3048 5.45762 56.8728 5.55199L57.6436 5.70927C57.6436 5.76432 57.7004 5.76432 57.741 5.76432C57.8059 5.81937 57.8546 5.81937 57.9033 5.81937C58.0088 5.81937 58.1224 5.88228 58.1224 5.88228C58.4307 5.96092 58.7958 6.1182 59.0961 6.27548C60.1509 6.77092 61.0435 7.43151 61.7738 8.34374ZM52.053 10.4041C51.6878 11.0097 51.4282 11.7725 51.2253 12.5589L51.2334 12.5668C51.0251 13.3587 50.9671 14.2427 50.911 15.0975L50.9089 15.1305C50.9089 16.0348 50.9575 16.9392 51.1685 17.7414C51.3795 18.5514 51.6391 19.2513 52.0043 19.8489C52.3694 20.4623 52.84 20.9106 53.3593 21.2645C53.8868 21.6105 54.5116 21.7678 55.2013 21.7678C55.8748 21.7678 56.5077 21.6184 57.027 21.2645C57.5463 20.9106 58.0169 20.4623 58.3739 19.8647C58.7391 19.2513 59.0068 18.5514 59.2097 17.7414C59.372 16.9392 59.4856 16.0348 59.4856 15.1305V14.8316C59.4856 13.9273 59.372 13.1173 59.161 12.3151C58.95 11.513 58.6904 10.8603 58.3253 10.2547C57.9601 9.68851 57.5382 9.24812 57.027 8.9021C56.4996 8.54821 55.9234 8.40666 55.2418 8.40666C54.5521 8.40666 53.9355 8.60326 53.4161 8.95715C52.8887 9.30317 52.4181 9.80647 52.053 10.4041ZM39.7193 5.53633H44.101V25H39.7193V5.53633Z" fill="white"/>
<path fill-rule="evenodd" clip-rule="evenodd" d="M41.779 1C40.6703 1 39.7705 1.89813 39.7705 3.00474C39.7705 4.1675 40.6703 5.0576 41.779 5.00949C42.8877 5.00949 43.7876 4.11136 43.7876 3.00474C43.7876 1.89813 42.8877 1 41.779 1ZM15.4991 9.17141C16.2222 10.1016 16.7363 11.1681 17.1059 12.3469L17.122 12.3148C17.4835 13.5017 17.6442 14.7847 17.6442 16.164C17.6442 17.5512 17.4835 18.8343 17.13 20.0131C16.7604 21.1919 16.2463 22.2744 15.5232 23.1405C14.8001 24.0145 13.9163 24.7282 12.8317 25.2414C12.1086 25.5542 11.3293 25.8108 10.5018 25.915C10.5018 25.915 8.9512 26.1636 7.1435 25.8108C6.52487 25.6985 5.95444 25.5542 5.43222 25.2976C5.38401 25.2976 5.38401 25.2976 5.33581 25.2414C5.33581 25.1933 5.27957 25.1933 5.27957 25.1933H5.2394C4.91803 25.041 4.66093 24.8886 4.35563 24.6801C3.68076 24.215 3.11033 23.7098 2.58811 23.0924C1.86503 22.2103 1.35084 21.1919 0.981269 19.965C0.61973 18.7862 0.459045 17.5031 0.459045 16.1158C0.459045 14.7847 0.61973 13.4535 0.973235 12.2828C1.34281 11.0479 1.857 10.0294 2.58008 9.09924C3.30315 8.23319 4.18692 7.51148 5.23136 6.99827C6.19547 6.54921 7.28812 6.28458 8.52539 6.22845C9.36094 6.18033 10.084 6.22845 10.6464 6.32468L11.4097 6.48506C11.4097 6.54119 11.4659 6.54119 11.5061 6.54119C11.5704 6.59732 11.6186 6.59732 11.6668 6.59732C11.7712 6.59732 11.8837 6.66147 11.8837 6.66147C12.189 6.74166 12.5505 6.90204 12.8478 7.06242C13.8922 7.56762 14.776 8.24121 15.4991 9.17141ZM36.7174 12.3469C36.3478 11.1681 35.8337 10.1016 35.1106 9.17141C34.3875 8.24121 33.5037 7.56762 32.4593 7.06242C32.162 6.90204 31.8005 6.74166 31.4952 6.66147C31.4952 6.66147 31.3827 6.59732 31.2783 6.59732C31.2301 6.59732 31.1738 6.59732 31.1176 6.54119C31.0694 6.54119 31.0212 6.54119 31.0212 6.48506L30.2499 6.32468C29.6875 6.22845 28.9644 6.18033 28.1369 6.22845C26.8996 6.28458 25.807 6.54921 24.8429 6.99827C23.7984 7.51148 22.9147 8.23319 22.1916 9.09924C21.4685 10.0294 20.9543 11.0479 20.5847 12.2828C20.2312 13.4535 20.0705 14.7847 20.0705 16.1158C20.0705 17.5031 20.2312 18.7862 20.5928 19.965C20.9623 21.1437 21.5247 22.2103 22.1996 23.0924C22.7218 23.7098 23.2842 24.215 23.9671 24.6801C24.2724 24.8886 24.8911 25.1933 24.8911 25.1933C24.8911 25.1933 24.9393 25.1933 24.9393 25.2414C24.9737 25.2414 24.9897 25.2576 25.0045 25.2725C25.0174 25.2855 25.0294 25.2976 25.0518 25.2976C25.574 25.5542 26.1364 25.6985 26.763 25.8108C28.5707 26.1636 30.1213 25.915 30.1213 25.915C30.9489 25.8108 31.7282 25.5542 32.4513 25.2414C33.5359 24.7282 34.4116 24.0145 35.1427 23.1405C35.8658 22.2744 36.38 21.1919 36.7496 20.0131C37.1031 18.8343 37.2557 17.5512 37.2557 16.164C37.2557 14.7847 37.0549 13.5017 36.7415 12.3148L36.7174 12.3469ZM24.6099 13.4697C24.8188 12.6678 25.0759 11.8899 25.4374 11.2725C25.799 10.663 26.265 10.1498 26.7791 9.79696C27.3014 9.43611 27.92 9.23563 28.5868 9.23563C29.2617 9.23563 29.8321 9.37997 30.3544 9.74083C30.8686 10.0937 31.2783 10.5427 31.6398 11.1201C32.0014 11.7376 32.2585 12.4031 32.4674 13.2211C32.6843 14.039 32.7887 14.865 32.7887 15.7871V16.0919C32.7887 17.014 32.6843 17.9362 32.5316 18.7542C32.3227 19.5801 32.0657 20.2938 31.7041 20.9193C31.3426 21.5287 30.8766 21.9858 30.3544 22.3467C29.8402 22.7075 29.2296 22.8599 28.5467 22.8599C27.8718 22.8599 27.2612 22.6995 26.739 22.3467C26.2167 21.9858 25.7508 21.5287 25.3892 20.9032C25.0197 20.2938 24.7626 19.5801 24.5537 18.7542C24.3528 17.9362 24.2966 17.014 24.2966 16.0919C24.3528 15.2098 24.4573 14.2956 24.6179 13.4777L24.6099 13.4697ZM5.0546 13.4697C5.25546 12.6678 5.51255 11.8899 5.87409 11.2725C6.23563 10.663 6.70162 10.1498 7.22384 9.79696C7.73803 9.43611 8.34863 9.23563 9.03154 9.23563C9.70641 9.23563 10.2768 9.37997 10.7991 9.74083C11.3052 10.0937 11.723 10.5427 12.0845 11.1201C12.4461 11.7376 12.7032 12.4031 12.9121 13.2211C13.1209 14.039 13.2334 14.865 13.2334 15.7871L13.2174 16.0919C13.2174 17.014 13.1209 17.9362 12.9603 18.7542C12.7594 19.5801 12.4943 20.2938 12.1327 20.9193C11.7792 21.5287 11.3133 21.9858 10.7991 22.3467C10.2849 22.7075 9.6582 22.8599 8.99136 22.8599C8.30846 22.8599 7.68982 22.6995 7.1676 22.3467C6.65341 21.9858 6.18743 21.5287 5.82589 20.9032C5.50452 20.398 5.26349 19.6844 5.04657 18.8183C4.83768 17.9924 4.78144 17.0541 4.78144 16.14C4.78144 15.2178 4.83768 14.2956 5.03854 13.4777L5.0546 13.4697Z" fill="white"/>
</svg>
